<?xml version="1.0" encoding="UTF-8"?>
<svg width="21px" height="20px" viewBox="0 0 21 20" version="1.1" xmlns="http://www.w3.org/2000/svg" xmlns:xlink="http://www.w3.org/1999/xlink">
    <title>Icon</title>
    <g id="Symbols" stroke="none" stroke-width="1" fill="inherit" fill-rule="evenodd" opacity="1">
        <g id="Sidebar-/-Step-/-Icon-/-Account" fill="inherit" fill-rule="nonzero">
            <path d="M16.9541026,8.0906518 C18.677413,8.0906518 20.0661209,9.48883325 20.0661209,11.1973961 C20.0661209,12.5162731 19.2681925,13.5913766 17.844032,14.2094048 L19.0328183,15.3886199 C19.1763868,15.5374623 19.1747265,15.7320123 19.0484448,15.8521411 L17.8156113,17.0667111 L18.6894259,17.9473623 C18.8139496,18.0754019 18.8208838,18.2621387 18.6911839,18.3996519 L17.1780499,19.9048749 C17.045713,20.0373095 16.8692311,20.02432 16.7498837,19.9100512 L15.924609,19.1037236 C15.8311429,18.996389 15.7670743,18.8829992 15.7670743,18.7496856 L15.7670743,14.097187 C14.5939145,13.6188206 13.8361267,12.5048462 13.8361267,11.1973961 C13.8361267,9.48883325 15.2152633,8.0906518 16.9541026,8.0906518 Z M8.38745771,10.0618376 C9.92539871,10.0618376 11.2961361,10.3787627 12.45699,10.8968789 C12.4452702,10.9953259 12.4418519,11.0959215 12.4418519,11.1973961 C12.4418519,11.8109318 12.5608086,12.397707 12.7826073,12.9328171 C11.6945143,12.2277688 10.214782,11.7115081 8.38745771,11.7115081 C4.17099718,11.7115081 1.80851392,14.44976 1.80851392,15.918749 C1.80851392,16.0966958 1.89969457,16.1651595 2.12364191,16.1651595 L14.3789524,16.1651595 L14.3789524,17.812193 C14.3649862,17.813072 14.349555,17.813072 14.3341238,17.813072 L2.43458004,17.813072 C0.792957184,17.813072 1.38555833e-13,17.2967137 1.38555833e-13,16.1771723 C1.38555833e-13,13.5684251 3.26511897,10.0618376 8.38745771,10.0618376 Z M16.9462893,9.52203958 C16.4217271,9.52203958 15.9969792,9.94678749 15.9969792,10.4687127 C15.9969792,10.9976699 16.4295404,11.4259338 16.9462893,11.4259338 C17.4647963,11.4259338 17.8895442,10.9976699 17.8895442,10.4687127 C17.8895442,9.94678749 17.4647963,9.52203958 16.9462893,9.52203958 Z M8.38745771,0 C10.694418,0 12.5609063,1.9548366 12.5609063,4.41879446 C12.5609063,6.91387837 10.6934414,8.94171028 8.38745771,8.94171028 C6.08313435,8.94171028 4.21564014,6.92169163 4.21564014,4.4344405 C4.21564014,1.98612867 6.0977842,0 8.38745771,0 Z M8.38745771,1.64791252 C7.05822821,1.64791252 5.94347247,2.84870193 5.94347247,4.43272159 C5.94347247,6.05908907 7.0687761,7.29379776 8.38745771,7.29379776 C9.71737088,7.29379776 10.8331033,6.04344303 10.8331033,4.41879446 C10.8331033,2.82524264 9.7278211,1.64791252 8.38745771,1.64791252 Z" id="Icon"></path>
        </g>
    </g>
</svg>