<?xml version="1.0" encoding="UTF-8"?>
<svg width="15px" height="15px" viewBox="0 0 15 15" version="1.1" xmlns="http://www.w3.org/2000/svg" xmlns:xlink="http://www.w3.org/1999/xlink">
    <title>Icon</title>
    <g id="Symbols" stroke="none" stroke-width="1" fill="none" fill-rule="evenodd">
        <g id="Sidebar-/-Menu-/-Section-/-Icon-/-Archive" fill="#000000" fill-rule="nonzero">
            <path d="M3.44572143,14.3035658 L11.554271,14.3035658 C13.0776706,14.3035658 13.9061238,13.4920755 13.9061238,11.9760214 L13.9061238,4.14716185 L12.4572395,4.14716185 L12.4572395,11.9539849 C12.4572395,12.5863051 12.1154079,12.9167019 11.4958855,12.9167019 L3.50413722,12.9167019 C2.87850363,12.9167019 2.5427605,12.5863051 2.5427605,11.9539849 L2.5427605,4.14716185 L1.09389893,4.14716185 L1.09389893,11.9760214 C1.09389893,13.4981337 1.92230664,14.3035658 3.44572143,14.3035658 Z M5.11718245,7.87508744 L9.89017064,7.87508744 C10.2394235,7.87508744 10.4931846,7.62734663 10.4931846,7.26469013 L10.4931846,7.02671052 C10.4931846,6.66404645 10.2407108,6.42503695 9.89017064,6.42503695 L5.11718245,6.42503695 C4.76664984,6.42503695 4.52024939,6.66404645 4.52024939,7.02671052 L4.52024939,7.26469013 C4.52024939,7.62734663 4.76931543,7.87508744 5.11718245,7.87508744 Z M1.5834587,4.85887429 L13.4191993,4.85887429 C14.421976,4.85887429 15,4.21623243 15,3.21951393 L15,2.13803423 C15,1.14264095 14.421976,0.5 13.4191993,0.5 L1.5834587,0.5 C0.618384239,0.5 0,1.14264095 0,2.13803423 L0,3.21951393 C0,4.21623243 0.580668417,4.85887429 1.5834587,4.85887429 Z M1.86802555,3.52389853 C1.52888227,3.52389853 1.38097233,3.36993043 1.38097233,3.03078716 L1.38097233,2.32808623 C1.38097233,1.98761016 1.52888227,1.83364206 1.86802555,1.83364206 L13.138025,1.83364206 C13.4772062,1.83364206 13.6190428,1.98761016 13.6190428,2.32808623 L13.6190428,3.03078716 C13.6190428,3.36993043 13.4772062,3.52389853 13.138025,3.52389853 L1.86802555,3.52389853 Z" id="Icon"></path>
        </g>
    </g>
</svg>