<?xml version="1.0" encoding="UTF-8"?>
<svg width="17px" height="17px" viewBox="0 0 17 17" version="1.1" xmlns="http://www.w3.org/2000/svg" xmlns:xlink="http://www.w3.org/1999/xlink">
    <title>State</title>
    <g id="Symbols" stroke="none" stroke-width="1" fill="inherit" fill-rule="inherit">
        <g id="Modal-/-Section-/-Checker-/-States-/-Verified" transform="translate(-24, 0)" fill="" fill-rule="inherit">
            <g id="State" transform="translate(25.6718, 1.6429)">
                <path d="M7.03074141,4.4408921e-16 C3.14801447,4.4408921e-16 0,3.07028571 0,6.85714286 C0,10.644 3.14801447,13.7142857 7.03074141,13.7142857 C10.9134684,13.7142857 14.0614828,10.644 14.0614828,6.85714286 C14.0614828,3.07028571 10.9134684,4.4408921e-16 7.03074141,4.4408921e-16 Z M5.97097093,10.0987015 L3.10071791,7.13191585 C3.00573088,7.03373421 3.00714331,6.87748577 3.10388971,6.78103732 L3.65261668,6.23400032 C3.75039821,6.13651994 3.90868927,6.13676407 4.00616965,6.2345456 C4.00664748,6.2350249 4.00712336,6.23550614 4.00759728,6.23598931 L5.95424895,8.22063342 C6.05093199,8.3192034 6.20921584,8.32073307 6.30778583,8.22405003 C6.30952326,8.22234586 6.31123572,8.2206164 6.31292266,8.21886222 L10.1986811,4.17820105 C10.2936331,4.0794639 10.4503607,4.0755278 10.5501493,4.16937418 L11.1243437,4.70937665 C11.2249235,4.80396713 11.2297788,4.9621839 11.1351883,5.06276368 C11.1347772,5.06320084 11.1343645,5.06363652 11.1339502,5.0640707 L6.33152429,10.0974503 C6.23621196,10.1973463 6.07796433,10.2010621 5.97806833,10.1057498 C5.97565576,10.1034479 5.97328949,10.101098 5.97097093,10.0987015 Z" id="Icon"></path>
            </g>
        </g>
    </g>
</svg>