<?xml version="1.0" encoding="UTF-8"?>
<svg width="18px" height="18px" viewBox="0 0 18 18" version="1.1" xmlns="http://www.w3.org/2000/svg" xmlns:xlink="http://www.w3.org/1999/xlink">
    <title>Icon</title>
    <g id="Symbols" stroke="none" stroke-width="1" fill="inherit" fill-rule="evenodd">
        <g id="Sidebar-/-Step-/-Icon-/-Done" transform="translate(-1, -1)" fill="inherit" fill-rule="nonzero">
            <g id="Icon" transform="translate(1, 1)">
                <path d="M9,18 C13.9696059,18 18.0015167,13.9680892 18.0015167,9 C18.0015167,4.03194647 13.9696059,0 9,0 C4.03194647,0 0,4.03194647 0,9 C0,13.9680892 4.03194647,18 9,18 Z M9,16.2271227 C5.00376803,16.2271227 1.77287732,12.996223 1.77287732,9 C1.77287732,5.00376803 5.00376803,1.77287732 9,1.77287732 C12.996223,1.77287732 16.2287286,5.00376803 16.2287286,9 C16.2287286,12.996223 12.996223,16.2271227 9,16.2271227 Z" id="Shape"></path>
                <path d="M8.05726394,13.1432565 C8.36987955,13.1432565 8.64206989,12.9881933 8.82730706,12.7008178 L12.7243717,6.61354349 C12.8343792,6.42517472 12.9397472,6.22251301 12.9397472,6.02613234 C12.9397472,5.59014424 12.5536059,5.29983346 12.1437323,5.29983346 C11.8882974,5.29983346 11.6516877,5.4517829 11.4672714,5.73895316 L8.02711673,11.2657249 L6.40792862,9.20074349 C6.1941145,8.92505576 5.98831227,8.83968178 5.72553457,8.83968178 C5.30540967,8.83968178 4.96683123,9.18066914 4.96683123,9.60794052 C4.96683123,9.81849814 5.0483777,10.0077323 5.19231524,10.1967881 L7.25238067,12.7071524 C7.4858855,13.0040743 7.74151673,13.1432565 8.05726394,13.1432565 Z" id="Path"></path>
            </g>
        </g>
    </g>
</svg>