<?xml version="1.0" encoding="UTF-8"?>
<svg width="12px" height="6px" viewBox="0 0 12 6" version="1.1" xmlns="http://www.w3.org/2000/svg" xmlns:xlink="http://www.w3.org/1999/xlink">
    <title>Component / Dropdown / Structure / Arrow / Down</title>
    <g id="Component-/-Dropdown-/-Structure-/-Arrow-/-Down" stroke="none" stroke-width="1" fill="none" fill-rule="evenodd" opacity="0.2">
        <path d="M6.04095132,5.75 C6.2247815,5.74900342 6.39109403,5.67841236 6.52777493,5.53479417 L10.6445346,1.31729137 C10.7626846,1.19910256 10.8265211,1.05290434 10.8265211,0.881725176 C10.8265211,0.528553969 10.552351,0.25 10.2021086,0.25 C10.0309737,0.25 9.87157637,0.318665997 9.74949537,0.439238289 L5.77623763,4.51412501 L6.30512797,4.51412501 L2.32799464,0.439238289 C2.20937398,0.320612095 2.05095658,0.25 1.8743682,0.25 C1.52314863,0.25 1.25,0.528553969 1.25,0.881725176 C1.25,1.0519299 1.31477269,1.19812813 1.43101817,1.32172615 L5.54969847,5.53479417 C5.69524892,5.68035016 5.85366633,5.75 6.04095132,5.75 Z" id="Path" fill="#1C293B" fill-rule="nonzero"></path>
    </g>
</svg>