<?xml version="1.0" encoding="UTF-8"?>
<svg width="7px" height="11px" viewBox="0 0 7 11" version="1.1" xmlns="http://www.w3.org/2000/svg" xmlns:xlink="http://www.w3.org/1999/xlink">
    <title>Arrow</title>
    <g id="Symbols" stroke="none" stroke-width="1" fill="inherit" fill-rule="evenodd">
        <g id="Content-/-Full" transform="translate(-157, -20)" fill="inherit" fill-rule="nonzero">
            <g id="Title-Group" transform="translate(20, 12)">
                <path d="M143.53953,13.4994274 C143.537303,13.2881745 143.458414,13.1061253 143.291157,12.9450786 L138.452156,8.20404421 C138.311251,8.06822215 138.143255,8 137.940346,8 C137.540735,8 137.21953,8.31389533 137.21953,8.71750777 C137.21953,8.91422242 137.299551,9.0962716 137.438097,9.23769008 L141.806767,13.4983076 L137.438097,17.7611647 C137.300671,17.901457 137.21953,18.0795424 137.21953,18.2824413 C137.21953,18.6849308 137.540735,19 137.940346,19 C138.141016,19 138.311251,18.9317308 138.452156,18.7908022 L143.291157,14.0537761 C143.459496,13.8876331 143.53953,13.7095605 143.53953,13.4994274 Z" id="Arrow"></path>
            </g>
        </g>
    </g>
</svg>