<?xml version="1.0" encoding="UTF-8"?>
<svg width="14px" height="15px" viewBox="0 0 14 15" version="1.1" xmlns="http://www.w3.org/2000/svg" xmlns:xlink="http://www.w3.org/1999/xlink">
    <title>Icon</title>
    <g id="Symbols" stroke="none" stroke-width="1" fill="inherit" fill-rule="inherit">
        <g id="Modal-/-Section-/-Disclaimer" transform="translate(-21, -11)" fill="" fill-rule="inherit">
            <g id="Text" transform="translate(21, 10)">
                <g id="Icon" transform="translate(0.058, 2.773)">
                    <path d="M7.46563826,0.146861573 C7.60100416,0.229585175 7.71474648,0.343327503 7.79747009,0.478693397 L13.7416583,10.2055469 C14.0296472,10.6768014 13.8810811,11.2922899 13.4098265,11.5802787 C13.2528186,11.676228 13.0723813,11.7269969 12.8883765,11.7269969 L1,11.7269969 C0.44771525,11.7269969 8.32667268e-17,11.2792817 -2.77555756e-17,10.7269969 C-2.77555756e-17,10.5429922 0.0507688855,10.3625548 0.146718166,10.2055469 L6.09090642,0.478693397 C6.37889531,0.00743885322 6.99438372,-0.141127315 7.46563826,0.146861573 Z M6.94895982,8.52446578 C6.44758857,8.52446578 6.07545969,8.89659466 6.07545969,9.37793334 L6.07545969,9.39796591 C6.07545969,9.88151063 6.44758857,10.2514112 6.94895982,10.2514112 C7.45033107,10.2514112 7.82245995,9.88151063 7.82245995,9.39796591 L7.82245995,9.37793334 C7.82245995,8.89438863 7.45033107,8.52446578 6.94895982,8.52446578 Z M7.43918948,3.12973343 L6.45650184,3.12973343 C6.18466949,3.12973343 6.02643672,3.35033678 6.05540484,3.64224627 L6.48769827,7.419243 C6.51666639,7.68886932 6.69716003,7.8604497 6.94895982,7.8604497 C7.2007596,7.8604497 7.38125325,7.69109763 7.41022137,7.419243 L7.8425148,3.64447458 C7.87148291,3.3525651 7.71104411,3.13196175 7.43918948,3.12973343 Z"></path>
                </g>
            </g>
        </g>
    </g>
</svg>