<?xml version="1.0" encoding="UTF-8"?>
<svg width="15px" height="15px" viewBox="0 0 15 15" version="1.1" xmlns="http://www.w3.org/2000/svg" xmlns:xlink="http://www.w3.org/1999/xlink">
    <title>State</title>
    <g id="Symbols" stroke="none" stroke-width="1" fill="inherit" fill-rule="inherit">
        <g id="Modal-/-Section-/-Checker-/-States-/-Warning" transform="translate(-22, -1)" fill="" fill-rule="inherit">
            <g id="State" transform="translate(23.5, 2.5)">
                <path d="M6,0 C9.3135,0 12,2.6865 12,6 C12,9.3135 9.3135,12 6,12 C2.6865,12 0,9.3135 0,6 C0,2.6865 2.6865,0 6,0 Z M6.00693737,7.79746887 C5.50556612,7.79746887 5.13343724,8.16959775 5.13343724,8.65093643 L5.13343724,8.670969 C5.13343724,9.15451371 5.50556612,9.52441428 6.00693737,9.52441428 C6.50830862,9.52441428 6.8804375,9.15451371 6.8804375,8.670969 L6.8804375,8.65093643 C6.8804375,8.16739172 6.50830862,7.79746887 6.00693737,7.79746887 Z M6.49716704,2.40273652 L5.51447939,2.40273652 C5.24264704,2.40273652 5.08441428,2.62333987 5.11338239,2.91524935 L5.54567582,6.69224609 C5.57464394,6.96187241 5.75513759,7.13345279 6.00693737,7.13345279 C6.25873716,7.13345279 6.4392308,6.96410072 6.46819892,6.69224609 L6.90049235,2.91747767 C6.92946047,2.62556819 6.76902167,2.40496484 6.49716704,2.40273652 Z" id="Icon"></path>
            </g>
        </g>
    </g>
</svg>