<?xml version="1.0" encoding="UTF-8"?>
<svg width="11px" height="10px" viewBox="0 0 11 10" version="1.1" xmlns="http://www.w3.org/2000/svg" xmlns:xlink="http://www.w3.org/1999/xlink">
    <title>Icon</title>
    <g id="Symbols" stroke="none" stroke-width="1" fill="none" fill-rule="evenodd">
        <g id="Table-/-Row-/-User" transform="translate(-871, -29)" fill="" fill-rule="nonzero">
            <g id="Content" transform="translate(29, 18)">
                <g id="Actions" transform="translate(835, 3.5)">
                    <path d="M13.1851816,7.55303428 C13.2871809,7.57136749 13.3918468,7.66753352 13.41868,7.76769951 L13.6651783,8.68752669 C13.6920115,8.78769268 13.7868442,8.91119185 13.8765103,8.96302484 L14.8530037,9.5268544 C14.9428365,9.57868738 15.0971688,9.59902058 15.1973348,9.57218743 L16.1171619,9.32568908 C16.2173279,9.29885592 16.3529937,9.34135564 16.4198266,9.42052178 C16.6878248,9.73785298 16.9858228,10.2616828 17.1216552,10.6420136 C17.1564883,10.7398463 17.1253218,10.8786787 17.051989,10.9520115 L16.4048267,11.5990072 C16.3314938,11.67234 16.2719942,11.8161724 16.2719942,11.9198384 L16.2719942,13.0473308 C16.2719942,13.1511635 16.3314938,13.2948292 16.4048267,13.368162 L17.0616556,14.0249909 C17.1349884,14.0983238 17.1664882,14.2373229 17.1319885,14.3351555 C17.0938221,14.4434881 16.9653229,14.7238196 16.8084906,14.9956511 C16.660325,15.2521494 16.4928261,15.4906478 16.4294932,15.566314 C16.362827,15.6456468 16.2273279,15.6884798 16.1271619,15.6616466 L15.2533344,15.4274815 C15.1530017,15.4006484 14.9988361,15.4209816 14.9090034,15.4728146 L13.9325099,16.0364775 C13.8426772,16.0883105 13.7480111,16.2118096 13.721178,16.3119756 L13.4781796,17.2189696 C13.4513464,17.3191355 13.3468471,17.4164682 13.2450145,17.4361348 C12.8418505,17.5139676 12.2325213,17.5228009 11.8170241,17.4508013 C11.7146914,17.4331348 11.6083588,17.3379688 11.579359,17.2383028 L11.3098608,16.3109756 C11.280861,16.2113096 11.1845283,16.0883105 11.0946956,16.0364775 L10.1182021,15.4728146 C10.0283694,15.4209816 9.87403707,15.4006484 9.77387108,15.4274815 L8.8540439,15.6739799 C8.75387791,15.7008131 8.61821215,15.6581467 8.55137926,15.5789805 C8.29438098,15.2746492 8.00238294,14.7676526 7.8685505,14.4041551 C7.83271741,14.3068224 7.86188388,14.1671567 7.93355007,14.0921572 L8.6252121,13.3709953 C8.69687829,13.2961625 8.75521123,13.1511635 8.75521123,13.0473308 L8.75521123,11.9198384 C8.75521123,11.8161724 8.69571163,11.67234 8.62237879,11.5990072 L7.9328834,10.9096785 C7.85955056,10.8363456 7.82921743,10.6978466 7.86505052,10.6005139 C7.89705031,10.5136811 8.01771617,10.2550162 8.1627152,10.0040179 C8.31088087,9.74751959 8.47837975,9.50902118 8.54171266,9.43352169 C8.60821221,9.35402222 8.74404464,9.30952252 8.8448773,9.33435569 L9.82887071,9.57602074 C9.9295367,9.60068724 10.084369,9.57868738 10.1742017,9.5268544 L11.1505285,8.96302484 C11.2403613,8.91119185 11.335194,8.78769268 11.3620271,8.68752669 L11.6106921,7.75936623 C11.6375253,7.65920024 11.7423579,7.56386754 11.8446905,7.54653433 C12.2205214,7.48320142 12.7993508,7.48370141 13.1851816,7.55303428 Z M12.4973528,10.2446829 C11.2526945,10.2446829 10.2423679,11.2551762 10.2423679,12.4998345 C10.2423679,13.7443262 11.2526945,14.7548194 12.4973528,14.7548194 C13.7418445,14.7548194 14.7523377,13.7443262 14.7523377,12.4998345 C14.7523377,11.2551762 13.7418445,10.2446829 12.4973528,10.2446829 Z" id="Icon"></path>
                </g>
            </g>
        </g>
    </g>
</svg>