<?xml version="1.0" encoding="UTF-8"?>
<svg width="15px" height="15px" viewBox="0 0 15 15" version="1.1" xmlns="http://www.w3.org/2000/svg" xmlns:xlink="http://www.w3.org/1999/xlink">
    <title>Icon</title>
    <g id="Symbols" stroke="none" stroke-width="1" fill="inherit" fill-rule="inherit">
        <g id="Sidebar-/-Menu-/-Section-/-Icon-/-Cogs" fill="" fill-rule="nonzero">
            <path d="M6.80191968,14.9931373 L8.20378275,14.9931373 C8.77430842,14.9931373 9.22052685,14.6385397 9.35233356,14.0924227 L9.63328066,12.8700799 L9.81708841,12.8065467 L10.8835696,13.4601325 C11.3650213,13.7608188 11.9291795,13.6854704 12.3340801,13.2781643 L13.3050492,12.3152607 C13.712426,11.9029314 13.7852982,11.3355895 13.4846119,10.8622739 L12.8196354,9.80392897 L12.8876259,9.63271467 L14.1074924,9.34363135 C14.6479494,9.2093484 15.0057307,8.75994623 15.0057307,8.19508054 L15.0057307,6.83203783 C15.0057307,6.2683961 14.6536094,5.81653892 14.1074924,5.68346579 L12.8989458,5.3887225 L12.8252954,5.20618117 L13.4902719,4.14783624 C13.7921609,3.67455605 13.718086,3.11284579 13.3107799,2.69484235 L12.3397401,1.72632125 C11.9404995,1.32462562 11.3763413,1.24682216 10.8948895,1.54433177 L9.82840837,2.19793883 L9.63328066,2.12304318 L9.35233356,0.900672122 C9.22052685,0.353332547 8.77430842,0 8.20378275,0 L6.80191968,0 C6.23135863,0 5.7851685,0.355820107 5.65334057,0.900672122 L5.36674764,2.12304318 L5.17163408,2.19793883 L4.11079876,1.54433177 C3.62937528,1.24931255 3.05950758,1.32462562 2.66029526,1.72632125 L1.69495083,2.69484235 C1.28758814,3.11284579 1.20786029,3.67455605 1.51545174,4.14783624 L2.17472584,5.20618117 L2.10673537,5.3887225 L0.898188807,5.68346579 C0.349601915,5.81777704 0,6.2683961 0,6.83203783 L0,8.19508054 C0,8.75994623 0.357755112,9.21055114 0.898188807,9.34363135 L2.11806948,9.63271467 L2.1803929,9.80392897 L1.52111879,10.8622739 C1.21352027,11.3355895 1.29325519,11.9029314 1.70061788,12.3152607 L2.66596231,13.2781643 C3.07084169,13.6854704 3.64070231,13.7608188 4.12213287,13.4601325 L5.18296819,12.8065467 L5.36674764,12.8700799 L5.65334057,14.0924227 C5.7851685,14.6385397 6.23135863,14.9931373 6.80191968,14.9931373 Z M6.97340283,13.7412211 C6.85718935,13.7412211 6.79749074,13.6915548 6.77800627,13.5847935 L6.3684362,11.8824847 C5.93080678,11.7838596 5.51087187,11.6068439 5.17647336,11.3928967 L3.6802231,12.3112987 C3.59855671,12.3722142 3.51122326,12.3596208 3.43080207,12.2792491 L2.69387308,11.5435229 C2.61786666,11.4675377 2.61469,11.3858925 2.66747636,11.2941301 L3.58957149,9.80916445 C3.39957314,9.47918779 3.21495885,9.06424074 3.10938613,8.62665377 L1.4071127,8.22394642 C1.30029479,8.20449025 1.25068509,8.14477749 1.25068509,8.02853572 L1.25068509,6.99288022 C1.25068509,6.87100677 1.29462774,6.81822041 1.4071127,6.79749074 L3.10371908,6.38915879 C3.21178219,5.93012051 3.41532203,5.50009669 3.57824446,5.20093154 L2.66180931,3.71601538 C2.60336297,3.61859302 2.60529444,3.53692663 2.68129378,3.45526024 L3.42513501,2.73090347 C3.50556329,2.65048228 3.58156263,2.63914817 3.6802231,2.69884678 L5.16389406,3.60021225 C5.47715256,3.41324906 5.9334316,3.2255996 6.37285805,3.10938613 L6.77800627,1.4083579 C6.79749074,1.30153999 6.85718935,1.25193029 6.97340283,1.25193029 L8.03228545,1.25193029 C8.14852723,1.25193029 8.20696649,1.30153999 8.22203618,1.4083579 L8.63853973,3.12072023 C9.0868099,3.23002146 9.48845601,3.41145909 9.83046011,3.6058793 L11.3160625,2.70133009 C11.4216211,2.64163856 11.4907436,2.65172747 11.5780487,2.73339386 L12.3149777,3.45775063 C12.3966936,3.53941702 12.3942174,3.62108341 12.3357074,3.71849869 L11.4217626,5.20093154 C11.5891564,5.4988515 11.7882461,5.93012051 11.8950782,6.38667547 L13.5985897,6.79749074 C13.7054218,6.81822041 13.7550173,6.87100677 13.7550173,6.99288022 L13.7550173,8.02853572 C13.7550173,8.14477749 13.6984883,8.20449025 13.5985897,8.22394642 L11.8894182,8.62913001 C11.7838596,9.06303799 11.6048629,9.48293753 11.4104427,9.80916445 L12.3288447,11.2916539 C12.3828267,11.3833455 12.3853737,11.4650614 12.3036578,11.5410466 L11.5723887,12.2767021 C11.4838101,12.358418 11.4034384,12.3684645 11.3160625,12.3088225 L9.82607363,11.3928967 C9.48541377,11.6068439 9.08978138,11.7788364 8.63853973,11.8824847 L8.22203618,13.5847935 C8.20696649,13.6915548 8.14852723,13.7412211 8.03228545,13.7412211 L6.97340283,13.7412211 Z M7.50222862,10.1234347 C8.94000424,10.1234347 10.1221612,8.94127774 10.1221612,7.49656864 C10.1221612,6.06443176 8.94000424,4.88352003 7.50222862,4.88352003 C6.06443176,4.88352003 4.87536967,6.06443176 4.87536967,7.49656864 C4.87536967,8.93682051 6.05877179,10.1234347 7.50222862,10.1234347 Z M7.50222862,8.938094 C6.71513808,8.938094 6.06760842,8.29059265 6.06760842,7.49656864 C6.06760842,6.71513808 6.7163762,6.06885362 7.50222862,6.06885362 C8.2767257,6.06885362 8.92302431,6.71762139 8.92302431,7.49656864 C8.92302431,8.28493267 8.2767257,8.938094 7.50222862,8.938094 Z" id="Icon"></path>
        </g>
    </g>
</svg>