<?xml version="1.0" encoding="UTF-8"?>
<svg width="15px" height="15px" viewBox="0 0 15 15" version="1.1" xmlns="http://www.w3.org/2000/svg" xmlns:xlink="http://www.w3.org/1999/xlink">
    <title>Icon</title>
    <g id="Symbols" stroke="none" stroke-width="1" fill="none" fill-rule="evenodd">
        <g id="Sidebar-/-Menu-/-Section-/-Icon-/-Gift" fill="#000000" fill-rule="nonzero">
            <path d="M3.66374975,15 L11.3407327,15 C12.675267,15 13.4201956,14.284009 13.4201956,12.9487513 L13.4201956,8.71393639 L13.4607084,8.71393639 C14.0748387,8.54537431 14.404439,8.01957635 14.404439,7.25323379 L14.404439,5.45872761 C14.404439,4.50272014 13.869381,3.90785514 12.9222502,3.90785514 L11.6884191,3.90785514 C12.065405,3.52324421 12.2882253,3.00567179 12.2882253,2.41038719 C12.2882253,1.00292994 11.1717366,0 9.76681136,0 C8.72939491,0 7.85012299,0.587229794 7.49869636,1.61657551 C7.14983071,0.587229794 6.27506583,0 5.23059583,0 C3.8327459,0 2.71041902,1.00292994 2.71041902,2.41038719 C2.71041902,3.00567179 2.93324652,3.52324421 3.31601991,3.90785514 L2.08220332,3.90785514 C1.16532902,3.90785514 0.6,4.50272014 0.6,5.45872761 L0.6,7.25323379 C0.6,8.01957635 0.923854067,8.54537431 1.53793587,8.71393639 L1.57848482,8.71393639 L1.57848482,12.9487513 C1.57848482,14.284009 2.32340626,15 3.66374975,15 Z M6.78727031,13.7406314 L3.8212938,13.7406314 C3.26288306,13.7406314 2.94736812,13.4213039 2.94736812,12.8704749 L2.94736812,8.80284747 L6.78727031,8.80284747 L6.78727031,13.7406314 Z M8.21141013,13.7406314 L8.21141013,8.80284747 L12.0512979,8.80284747 L12.0512979,12.8704749 C12.0512979,13.4213039 11.7332726,13.7406314 11.1760772,13.7406314 L8.21141013,13.7406314 Z M6.78854357,7.55288364 L2.44942993,7.55288364 C2.11271812,7.55288364 1.97142258,7.4058078 1.97142258,7.06910322 L1.97142258,5.63832219 C1.97142258,5.30160315 2.11271812,5.15903435 2.44942993,5.15903435 L6.78854357,5.15903435 L6.78854357,7.55288364 Z M8.21141013,7.55288364 L8.21141013,5.15903435 L12.5608184,5.15903435 C12.8975085,5.15903435 13.0330092,5.30160315 13.0330092,5.63832219 L13.0330092,7.08054808 C13.0330092,7.41723819 12.8975085,7.55288364 12.5608184,7.55288364 L8.21141013,7.55288364 Z M6.83290506,3.90785514 L5.76893828,3.90785514 C4.68899789,3.90785514 4.06065197,3.30578465 4.06065197,2.53882716 C4.06065197,1.78711983 4.58896027,1.32988251 5.35337848,1.32988251 C6.16994241,1.32988251 6.83290506,1.9758949 6.83290506,2.9769873 L6.83290506,3.90785514 Z M8.16576092,3.90785514 L8.16576092,2.9769873 C8.16576092,1.9758949 8.83002575,1.32988251 9.64527303,1.32988251 C10.4097346,1.32988251 10.9379923,1.78711983 10.9379923,2.53882716 C10.9379923,3.30578465 10.3154701,3.90785514 9.2297277,3.90785514 L8.16576092,3.90785514 Z" id="Icon"></path>
        </g>
    </g>
</svg>