<?xml version="1.0" encoding="UTF-8"?>
<svg width="16px" height="16px" viewBox="0 0 16 16" version="1.1" xmlns="http://www.w3.org/2000/svg" xmlns:xlink="http://www.w3.org/1999/xlink">
    <title>Icon</title>
    <g id="Symbols" stroke="none" stroke-width="1" fill="inherit" fill-rule="evenodd">
        <g id="Content-/-Full" transform="translate(-884, -14)" fill="" fill-rule="nonzero">
            <g id="Title" transform="translate(20, 12)">
                <path d="M871.993656,2 C876.376506,2 880.001348,5.61710235 880.001348,10 C880.001348,14.3765056 876.382929,18 872,18 C867.624843,18 864,14.3765056 864,10 C864,5.61710235 867.61849,2 871.993656,2 Z M871.993656,3.57589095 C868.428744,3.57589095 865.582235,6.43508897 865.582235,10 C865.582235,13.5648872 868.435089,16.424109 872,16.424109 C875.564887,16.424109 878.425537,13.5648872 878.425537,10 C878.425537,6.43508897 875.558543,3.57589095 871.993656,3.57589095 Z M871.813504,12.2151772 C872.316431,12.2151772 872.718275,12.578399 872.718275,13.0651797 C872.718275,13.5534672 872.310087,13.9152615 871.813504,13.9152615 C871.316913,13.9152615 870.904585,13.5471227 870.904585,13.0651797 C870.904585,12.583316 871.310561,12.2151772 871.813504,12.2151772 Z M872.067648,6.01656704 C873.442815,6.01656704 874.602984,6.75541413 874.602984,8.04243271 C874.602984,8.94531648 874.110414,9.38893879 873.343841,9.88738538 C872.837948,10.21714 872.569259,10.4875737 872.548322,10.889259 C872.545546,10.9124957 872.544119,10.951197 872.542771,10.9807782 C872.523261,11.2939579 872.24688,11.5446444 871.824813,11.5446444 C871.355947,11.5446444 871.090922,11.3173532 871.090922,10.8798216 L871.090922,10.7944882 C871.090922,10.091202 871.495201,9.69330756 872.047266,9.30885551 C872.701542,8.85315489 873.025428,8.6143088 873.025428,8.1211202 C873.025428,7.59664535 872.607485,7.22458885 871.97938,7.22458885 C871.512077,7.22458885 871.145596,7.45306171 870.882895,7.87297943 L870.761612,8.03515242 C870.609661,8.23635985 870.415576,8.35749195 870.134134,8.35749195 C869.821407,8.35749195 869.532217,8.12701264 869.532217,7.75340173 C869.532217,7.61337893 869.558237,7.48249219 869.603934,7.35160545 C869.840924,6.62654969 870.739771,6.01656704 872.067648,6.01656704 Z" id="Icon"></path>
            </g>
        </g>
    </g>
</svg>