<?xml version="1.0" encoding="UTF-8"?>
<svg width="18px" height="18px" viewBox="0 0 18 18" version="1.1" xmlns="http://www.w3.org/2000/svg" xmlns:xlink="http://www.w3.org/1999/xlink">
    <title>Icon</title>
    <g id="Views" stroke="none" stroke-width="1" fill="none" fill-rule="inherit">
        <g id="Dashboard-/-Members-/-Invite" transform="translate(-877, -271)" fill="#000000" fill-rule="inherit">
            <g id="Modal-+-Form">
                <path d="M885.992908,271 C890.923639,271 895.001607,275.06924 895.001607,280 C895.001607,284.923569 890.930866,289 886.000045,289 C881.077969,289 877,284.923569 877,280 C877,275.06924 881.070822,271 885.992908,271 Z M885.992908,272.772877 C881.982363,272.772877 878.780024,275.989475 878.780024,280 C878.780024,284.010498 881.9895,287.227123 886.000045,287.227123 C890.010564,287.227123 893.22881,284.010498 893.22881,280 C893.22881,275.989475 890.003426,272.772877 885.992908,272.772877 Z M886.270975,278.491283 C886.756153,278.491283 887.013284,278.831601 887.013284,279.346004 L887.013284,283.462513 L887.983906,283.462513 C888.369425,283.462513 888.671701,283.754528 888.671701,284.122558 C888.671701,284.512714 888.369425,284.792952 887.983906,284.792952 L884.477007,284.792952 C884.09155,284.792952 883.789211,284.512714 883.789211,284.122558 C883.789211,283.754528 884.09155,283.462513 884.477007,283.462513 L885.51035,283.462513 L885.51035,279.823292 L884.629831,279.823292 C884.242805,279.823292 883.942036,279.54309 883.942036,279.152934 C883.942036,278.784904 884.242805,278.491283 884.629831,278.491283 Z M885.945323,274.777877 C886.603319,274.777877 887.121864,275.30204 887.121864,275.963164 C887.121864,276.616455 886.603319,277.14375 885.945323,277.14375 C885.299149,277.14375 884.770281,276.616455 884.770281,275.963164 C884.770281,275.30204 885.299149,274.777877 885.945323,274.777877 Z" id="Icon"></path>
            </g>
        </g>
    </g>
</svg>