<?xml version="1.0" encoding="UTF-8"?>
<svg width="15px" height="16px" viewBox="0 0 15 16" version="1.1" xmlns="http://www.w3.org/2000/svg" xmlns:xlink="http://www.w3.org/1999/xlink">
    <title>Icon</title>
    <g id="Symbols" stroke="none" stroke-width="1" fill="none" fill-rule="evenodd">
        <g id="Sidebar-/-Menu-/-Section-/-Icon-/-Key" fill="#000000" fill-rule="nonzero">
            <path d="M0.739238311,9.96645188 C1.21878973,9.96645188 1.48332369,10.2323736 1.48332369,10.7194832 L1.48332369,12.4299103 C1.48332369,13.1668933 1.86566173,13.5300353 2.56962549,13.5300353 L4.31870807,13.5300353 C4.80446873,13.5300353 5.07173167,13.7945615 5.07173167,14.274151 C5.07173167,14.7474606 4.80719772,15.0133823 4.31870807,15.0133823 L2.48362346,15.0133823 C0.849476426,15.0133823 0,14.1763104 0,12.5545756 L0,10.7194832 C0,10.2323736 0.258324719,9.96645188 0.739238311,9.96645188 Z M14.2559619,9.96645188 C14.7354738,9.96645188 15,10.2323736 15,10.7194832 L15,12.5545756 C15,14.1701081 14.1519191,15.0133823 12.5163843,15.0133823 L10.6750897,15.0133823 C10.1941823,15.0133823 9.92833811,14.7474606 9.92833811,14.274151 C9.92833811,13.7945615 10.1941823,13.5300353 10.6750897,13.5300353 L12.4242033,13.5300353 C13.121957,13.5300353 13.5167306,13.1668933 13.5167306,12.4299103 L13.5167306,10.7194832 C13.5167306,10.2336916 13.7763725,9.96645188 14.2559619,9.96645188 Z M7.50554327,2.98558067 C8.88077714,2.98558067 9.99857865,4.10822769 9.99857865,5.48071707 C9.99857865,6.5320459 9.3561025,7.40635461 8.19984701,7.89226257 L9.1636,8.86229534 C9.26733272,8.9735483 9.272217,9.12875974 9.17600451,9.22008796 L8.18348856,10.2002769 L8.8889176,10.9112105 C8.9961391,11.0086634 9.00156607,11.1611614 8.89031311,11.2662896 L7.67513619,12.4751867 C7.57549696,12.576206 7.44088475,12.5686857 7.34397451,12.4792957 L6.69013273,11.8328656 C6.60624722,11.7516936 6.56293997,11.6582721 6.55672996,11.5489574 L6.55672996,7.80946246 C5.61215745,7.4267988 5.00147562,6.5215951 5.00147562,5.48071707 C5.00147562,4.10201768 6.11170262,2.98558067 7.50554327,2.98558067 Z M7.49933326,4.18575589 C7.07868078,4.18575589 6.73450211,4.52721331 6.73450211,4.94574152 C6.73450211,5.372604 7.08489079,5.71679042 7.49933326,5.71679042 C7.91516348,5.71679042 8.25310888,5.372604 8.25310888,4.94574152 C8.25310888,4.52721331 7.91516348,4.18575589 7.49933326,4.18575589 Z M4.31870807,0.0195312 C4.80719772,0.0195312 5.07173167,0.277855764 5.07173167,0.757406411 C5.07173167,1.23695551 4.80719772,1.50285396 4.31870807,1.50285396 L2.56962549,1.50285396 C1.86566173,1.50285396 1.48332369,1.86596501 1.48332369,2.60157577 L1.48332369,4.31204156 C1.48332369,4.79295671 1.22499974,5.06506516 0.739238311,5.06506516 C0.265895347,5.06506516 0,4.7943212 0,4.31204156 L0,2.47211144 C0,0.855229936 0.849476426,0.0195312 2.48362346,0.0195312 Z M12.5163843,0.0195312 C14.1519191,0.0195312 15,0.855229936 15,2.47211144 L15,4.31204156 C15,4.7943212 14.7416761,5.06506516 14.2559619,5.06506516 C13.7825748,5.06506516 13.5167306,4.7943212 13.5167306,4.31204156 L13.5167306,2.60157577 C13.5167306,1.86596501 13.121957,1.50285396 12.4242033,1.50285396 L10.6750897,1.50285396 C10.1955778,1.50285396 9.92833811,1.23695551 9.92833811,0.757406411 C9.92833811,0.277855764 10.1941823,0.0195312 10.6750897,0.0195312 Z" id="Icon"></path>
        </g>
    </g>
</svg>