<svg viewBox="0 0 14.0271 19.973" xmlns="http://www.w3.org/2000/svg"><path d="m0 0h14.0271v19.973h-14.0271z" opacity="0"/><path d="m2.26054 19.4572h9.14476c1.483 0 2.2605-.7953 2.2605-2.3963v-6.9166c0-1.59567-.7775-2.38297-2.2605-2.38297h-9.14476c-1.484759 0-2.26054.7873-2.26054 2.38297v6.9166c0 1.601.775781 2.3963 2.26054 2.3963zm-.47422-10.87537h1.8287v-3.29375c0-2.28516 1.46681-3.53926 3.21388-3.53926 1.74356 0 3.2316 1.2541 3.2316 3.53926v3.29375h1.8207v-3.1123c0-3.60332-2.38473-5.46953-5.0523-5.46953-2.65957 0-5.04258 1.86621-5.04258 5.46953z"/></svg>