<?xml version="1.0" encoding="UTF-8"?>
<svg width="89px" height="24px" viewBox="0 0 89 24" version="1.1" xmlns="http://www.w3.org/2000/svg" xmlns:xlink="http://www.w3.org/1999/xlink">
    <title>Identity</title>
    <g id="Symbols" stroke="none" stroke-width="1" fill="none" fill-rule="evenodd" stroke-linecap="round" stroke-linejoin="round">
        <g id="Sidebar-/-Pane-/-Dashboard" transform="translate(-32, -38)" stroke="#000000" stroke-width="2.5">
            <g id="Branding-/-Logo-/-Small-/-Black" transform="translate(34, 39.7143)">
                <path d="M0,20.1516035 C0.55678999,17.6668043 1.49405829,13.9659948 1.70123948,13.1791315 C4.71909567,1.3502244 10.1499055,0.513878 12.7550634,0.513878 C20.6254526,0.513878 21.3277053,13.2002227 10.7048849,13.2002227 C5.6335219,13.2002227 8.82777332,4.96492815 15.495846,11.1746582 C16.5783469,12.2503084 17.8280905,13.270797 19.6120121,13.270797 C25.2524993,13.270797 25.7525631,2.96856686 25.4388792,0.393009315 C26.5180519,3.18191225 31.8315423,1.42242113 34.1604586,1.96754701 C33.2119182,4.81647869 28.6855499,13.2716082 35.1788914,13.2716082 C37.9737574,13.2716082 39.7626713,11.0408104 39.2343177,8.64452784 C38.3831275,4.96411695 40.5705948,0.393009315 45.1468862,0.393009315 C52.7335454,0.393009315 53.4865533,13.2002227 45.2958237,13.2002227 C38.3814634,13.2002227 37.4112896,4.76699554 45.4755471,4.76699554 C49.7231776,4.76699554 50.3638584,5.45327009 51.6676855,6.08762788 C55.8329427,8.11481475 58.6860524,3.75380771 56.6491867,0.393009315 C56.6491867,0.393009315 64.6751698,2.98965804 66.4424504,7.89903575 C67.6031643,11.1243639 62.7714326,13.270797 59.7177981,13.270797 C54.5099785,13.270797 58.1102718,5.50599804 64.1617931,11.0838039 C65.2051876,12.0458862 66.5905558,13.270797 68.9411055,13.270797 C72.4249114,13.270797 77.2732841,10.3342558 78.8508566,6.10628546 C81.5333954,-1.08337328 73.6646703,-2.13955467 71.9306719,4.08883299 C71.1818242,6.77795842 72.6162835,13.2894546 80.3468878,13.2894546 C83.4412929,13.2894546 85.2859544,11.7441201 85.2859544,11.7441201"></path>
            </g>
        </g>
    </g>
</svg>