<?xml version="1.0" encoding="UTF-8"?>
<svg width="14px" height="15px" viewBox="0 0 14 15" version="1.1" xmlns="http://www.w3.org/2000/svg" xmlns:xlink="http://www.w3.org/1999/xlink">
    <title>Icon</title>
    <g id="Symbols" stroke="none" stroke-width="1" fill="none" fill-rule="inherit">
        <g id="Component-/-Special-/-Search-Field" transform="translate(-21, -13)" fill="" fill-rule="inherit">
            <path d="M34.6290703,25.2680481 L31.5449151,22.1838929 C32.0819003,21.314363 32.4065483,20.3000576 32.4065483,19.2032741 C32.4065483,16.053312 29.8532363,13.5 26.7032741,13.5 C23.553312,13.5 21,16.053312 21,19.2032741 C21,22.3532363 23.553312,24.9065483 26.7032741,24.9065483 C27.8000576,24.9065483 28.814363,24.5819003 29.6830155,24.0457926 L32.7680481,27.1299477 C33.2846018,27.6294131 34.1062372,27.6224072 34.6141989,27.1142061 C35.1221605,26.606005 35.1287791,25.7843664 34.6290703,25.2680481 Z M26.7032741,23.1516947 C24.5228686,23.1516947 22.7548536,21.3836797 22.7548536,19.2032741 C22.7548536,17.0228686 24.5228686,15.2548536 26.7032741,15.2548536 C28.8836797,15.2548536 30.6516947,17.0228686 30.6516947,19.2032741 C30.6516947,21.3836797 28.8836797,23.1516947 26.7032741,23.1516947 Z" id="Icon"></path>
        </g>
    </g>
</svg>