<?xml version="1.0" encoding="UTF-8"?>
<svg width="6px" height="18px" viewBox="0 0 6 18" version="1.1" xmlns="http://www.w3.org/2000/svg" xmlns:xlink="http://www.w3.org/1999/xlink">
    <title>Icon</title>
    <g id="Views" stroke="none" stroke-width="1" fill="none" fill-rule="evenodd">
        <g id="Dashboard-/-Customization-/-Emojis-&amp;-Reactions" transform="translate(-1286, -147)" fill="#1C293B" fill-rule="nonzero">
            <g id="Box" transform="translate(421, 113.5)">
                <g id="Content" transform="translate(29, 21.5)">
                    <g id="Action-Buttons" transform="translate(639, 0)">
                        <g id="More-Button" transform="translate(179, 0)">
                            <path d="M21,16.5 C22.2375,16.5 23.25,15.4875 23.25,14.25 C23.25,13.0125 22.2375,12 21,12 C19.7625,12 18.75,13.0125 18.75,14.25 C18.75,15.4875 19.7625,16.5 21,16.5 Z M21,18.75 C19.7625,18.75 18.75,19.7625 18.75,21 C18.75,22.2375 19.7625,23.25 21,23.25 C22.2375,23.25 23.25,22.2375 23.25,21 C23.25,19.7625 22.2375,18.75 21,18.75 Z M21,25.5 C19.7625,25.5 18.75,26.5125 18.75,27.75 C18.75,28.9875 19.7625,30 21,30 C22.2375,30 23.25,28.9875 23.25,27.75 C23.25,26.5125 22.2375,25.5 21,25.5 Z" id="Icon"></path>
                        </g>
                    </g>
                </g>
            </g>
        </g>
    </g>
</svg>