<?xml version="1.0" encoding="UTF-8"?>
<svg width="13px" height="16px" viewBox="0 0 13 16" version="1.1" xmlns="http://www.w3.org/2000/svg" xmlns:xlink="http://www.w3.org/1999/xlink">
    <title>Padlock</title>
    <g id="Symbols" stroke="none" stroke-width="1" fill="inherit" fill-rule="inherit">
        <g id="Table-/-Row-/-User" transform="translate(-592, -26)" fill="inherit" fill-rule="nonzero">
            <g id="Content" transform="translate(29, 18)">
                <g id="2FA" transform="translate(563.5, 8)">
                    <path d="M6.0952381,0 C3.56281181,0 1.52380952,2.03900229 1.52380952,4.57142857 L1.52380952,5.33333333 L1,5.33333333 C0.44771525,5.33333333 0,5.78104858 0,6.33333333 L0,15 C1.11022302e-16,15.5522847 0.44771525,16 1,16 L11.1904762,16 C11.7427609,16 12.1904762,15.5522847 12.1904762,15 L12.1904762,6.33333333 C12.1904762,5.78104858 11.7427609,5.33333333 11.1904762,5.33333333 L10.6666667,5.33333333 L10.6666667,5.33333333 L10.6666667,4.57142857 C10.6666667,2.03900229 8.62766476,0 6.0952381,0 Z M6.0952381,1.52380952 C7.8294781,1.52380952 9.14285714,2.83718819 9.14285714,4.57142857 L9.14285714,5.33333333 L3.04761905,5.33333333 L3.04761905,4.57142857 C3.04761905,2.83718819 4.36099771,1.52380952 6.0952381,1.52380952 Z M6.0952381,9.14285714 C6.93333333,9.14285714 7.61904762,9.82857143 7.61904762,10.6666667 C7.61904762,11.5047619 6.93333333,12.1904762 6.0952381,12.1904762 C5.25714286,12.1904762 4.57142857,11.5047619 4.57142857,10.6666667 C4.57142857,9.82857143 5.25714286,9.14285714 6.0952381,9.14285714 Z" id="Padlock"></path>
                </g>
            </g>
        </g>
    </g>
</svg>