<svg viewBox="0 0 20.5381 20.1848" xmlns="http://www.w3.org/2000/svg"><path d="m0 0h20.5381v20.1848h-20.5381z" opacity="0"/><path d="m10.0875 20.175c5.5701 0 10.0892-4.5191 10.0892-10.0875 0-5.56836-4.5191-10.0875-10.0892-10.0875-5.56836 0-10.0875 4.51914-10.0875 10.0875 0 5.5684 4.51914 10.0875 10.0875 10.0875zm0-1.9871c-4.47911 0-8.1004-3.6213-8.1004-8.1004 0-4.47911 3.62129-8.1004 8.1004-8.1004 4.4791 0 8.1022 3.62129 8.1022 8.1004 0 4.4791-3.6231 8.1004-8.1022 8.1004z"/><path d="m5.57031 10.0875c0 .5295.37421.8992.9162.8992h2.67775v2.6858c0 .5339.37773.9162.90724.9162.5392 0 .9232-.3742.9232-.9162v-2.6858h2.6875c.534 0 .9145-.3697.9145-.8992 0-.53926-.3805-.92324-.9145-.92324h-2.6875v-2.67775c0-.54374-.384-.92421-.9232-.92421-.52951 0-.90724.38047-.90724.92421v2.67775h-2.67775c-.54199 0-.9162.38398-.9162.92324z"/></svg>