<?xml version="1.0" encoding="UTF-8"?>
<svg width="9px" height="9px" viewBox="0 0 9 9" version="1.1" xmlns="http://www.w3.org/2000/svg" xmlns:xlink="http://www.w3.org/1999/xlink">
    <title>Icon</title>
    <g id="Symbols" stroke="none" stroke-width="1" fill="inherit" fill-rule="evenodd">
        <g id="Content-/-Nest-/-Action-/-Restore-Defaults" transform="translate(0, -3)" fill="" fill-rule="nonzero">
            <path d="M6.32652606,5.78590559 L5.42841201,5.78590559 C5.11237585,5.78590559 4.8570472,6.04123424 4.8570472,6.35727039 C4.8570472,6.67330655 5.11237585,6.9286352 5.42841201,6.9286352 L7.71387122,6.9286352 C8.02990738,6.9286352 8.28523602,6.67330655 8.28523602,6.35727039 L8.28523602,4.07181118 C8.28523602,3.75577503 8.02990738,3.50044638 7.71387122,3.50044638 C7.39783506,3.50044638 7.14250642,3.75577503 7.14250642,4.07181118 L7.14250642,4.98599487 L6.82825578,4.67174422 C5.26593014,3.10941859 2.73406986,3.10941859 1.17174422,4.67174422 C-0.390581408,6.23406986 -0.390581408,8.76593014 1.17174422,10.3282558 C2.73406986,11.8905814 5.26593014,11.8905814 6.82825578,10.3282558 C7.05144515,10.1050664 7.05144515,9.74260685 6.82825578,9.51941748 C6.6050664,9.2962281 6.24260685,9.2962281 6.01941748,9.51941748 C4.90347059,10.6353644 3.09474389,10.6353644 1.97879701,9.51941748 C0.862850128,8.40347059 0.862850128,6.59474389 1.97879701,5.47879701 C3.09474389,4.36285013 4.90347059,4.36285013 6.01941748,5.47879701 L6.32652606,5.78590559 Z" id="Icon"></path>
        </g>
    </g>
</svg>