<?xml version="1.0" encoding="UTF-8"?>
<svg width="15px" height="15px" viewBox="0 0 15 15" version="1.1" xmlns="http://www.w3.org/2000/svg" xmlns:xlink="http://www.w3.org/1999/xlink">
    <title>Icon</title>
    <g id="Symbols" stroke="none" stroke-width="1" fill="none" fill-rule="evenodd">
        <g id="Sidebar-/-Menu-/-Section-/-Icon-/-Stack" fill="#000000" fill-rule="nonzero">
            <path d="M11.6915668,0.896431389 L3.30115315,0.896431389 C3.32531908,0.329060824 3.68199037,0 4.27168933,0 L10.7210645,0 C11.3107702,0 11.667428,0.329060824 11.6915668,0.896431389 Z M13.0305928,2.8658872 C12.8067663,2.82950947 12.5697178,2.8111477 12.320532,2.8111477 L2.67216081,2.8111477 C2.42304285,2.8111477 2.18604175,2.82950269 1.96225598,2.86587364 C2.03514028,2.19953395 2.48719377,1.82200565 3.21738605,1.82200565 L11.780799,1.82200565 C12.5109981,1.82200565 12.9585154,2.19954073 13.0305928,2.8658872 Z M2.67216081,15 L12.320532,15 C13.7498073,15 14.4927538,14.2624779 14.4927538,12.8495438 L14.4927538,6.03961884 C14.4927538,4.62547097 13.7498073,3.88914906 12.320532,3.88914906 L2.67216081,3.88914906 C1.24175992,3.88914906 0.5,4.62547097 0.5,6.03961884 L0.5,12.8495438 C0.5,14.2624779 1.24175992,15 2.67216081,15 Z M2.75280885,13.7026745 C2.13712676,13.7026745 1.79730518,13.3797162 1.79730518,12.7351556 L1.79730518,6.15278647 C1.79730518,5.50946002 2.13712676,5.18645424 2.75280885,5.18645424 L12.2453355,5.18645424 C12.8501619,5.18645424 13.1954283,5.50946002 13.1954283,6.15278647 L13.1954283,12.7351556 C13.1954283,13.3797162 12.8501619,13.7026745 12.2453355,13.7026745 L2.75280885,13.7026745 Z" id="Icon"></path>
        </g>
    </g>
</svg>