<?xml version="1.0" encoding="UTF-8"?>
<svg width="15px" height="18px" viewBox="0 0 15 18" version="1.1" xmlns="http://www.w3.org/2000/svg" xmlns:xlink="http://www.w3.org/1999/xlink">
    <title>Icon</title>
    <g id="Symbols" stroke="none" stroke-width="1" fill="none" fill-rule="evenodd">
        <g id="Initialize-/-Tips-/-Sidecar" transform="translate(-8, -9)" fill="#FFFFFF" fill-rule="nonzero">
            <g id="Tip" transform="translate(0, 3)">
                <g id="Icon" transform="translate(8, 6)">
                    <path d="M6.85314371,3.85100841 C6.96197174,3.85100841 7.02664,3.77991822 7.04370902,3.67891516 C7.26873307,2.41617642 7.24806425,2.36622809 8.60474273,2.11928449 C8.70712479,2.09438248 8.77687607,2.03252833 8.77687607,1.92229725 C8.77687607,1.81847206 8.70576183,1.74879294 8.60337977,1.73172392 C7.24806425,1.49887489 7.26732201,1.44610444 7.04370902,0.173500303 C7.02664,0.0710913092 6.96197174,0 6.85314371,0 C6.74290461,0 6.6796394,0.0710913092 6.66257037,0.176319217 C6.4417795,1.43483199 6.45963423,1.48478032 5.10152865,1.73172392 C4.99128955,1.750204 4.92944342,1.81847206 4.92944342,1.92229725 C4.92944342,2.03252833 4.99128955,2.09438248 5.10576183,2.11928449 C6.45540906,2.35776974 6.43755434,2.41054019 6.66257037,3.6775041 C6.6796394,3.77991822 6.74290461,3.85100841 6.85314371,3.85100841 Z" id="Path"></path>
                    <path d="M3.05662949,9.3208559 C3.21806763,9.3208559 3.33535401,9.20781072 3.35383409,9.05131129 C3.63146825,6.97778203 3.69207169,6.97074277 5.85159546,6.56422908 C6.00019776,6.53792403 6.11184792,6.42847064 6.11184792,6.26702448 C6.11184792,6.11059721 5.9987867,5.99331083 5.84877334,5.9762418 C3.69629686,5.6751167 3.62504632,5.60888505 3.35383409,3.49554946 C3.33535401,3.3312892 3.21947869,3.21822798 3.05662949,3.21822798 C2.89878314,3.21822798 2.78290782,3.3312892 2.75942489,3.50478549 C2.51028453,5.57552469 2.40694039,5.57474701 0.261660312,5.9762418 C0.111647752,6.00254686 0,6.11059721 0,6.26702448 C0,6.43770667 0.111647752,6.53792403 0.29579675,6.56422908 C2.41696212,6.90027794 2.51028453,6.95930997 2.75942489,9.03567738 C2.78290782,9.20781072 2.89878314,9.3208559 3.05662949,9.3208559 Z" id="Path"></path>
                    <path d="M8.47069199,18 C8.71233609,18 8.89352908,17.8244192 8.93690315,17.5749982 C9.49844106,13.3387703 10.0942132,12.6952145 14.2715935,12.2296447 C14.5288715,12.2019046 14.7086214,12.0114916 14.7086214,11.7620706 C14.7086214,11.5218697 14.5316776,11.3328998 14.2729565,11.3009104 C10.0970193,10.8185041 9.51816384,10.193228 8.93690315,5.95056211 C8.89064282,5.70111709 8.71089296,5.53199829 8.47069199,5.53199829 C8.23049102,5.53199829 8.04929803,5.70111709 8.01237796,5.95056211 C7.449437,10.193228 6.84859785,10.8367838 2.67626853,11.3009104 C2.41256859,11.3286506 2.23422178,11.5190636 2.23422178,11.7620706 C2.23422178,12.0101286 2.41116555,12.1990985 2.67485747,12.2296447 C6.83936182,12.7855705 7.40402651,13.3387703 8.01237796,17.5749982 C8.05074116,17.8244192 8.23193415,18 8.47069199,18 Z" id="Path"></path>
                </g>
            </g>
        </g>
    </g>
</svg>