<?xml version="1.0" encoding="UTF-8"?>
<svg width="15px" height="15px" viewBox="0 0 15 15" version="1.1" xmlns="http://www.w3.org/2000/svg" xmlns:xlink="http://www.w3.org/1999/xlink">
    <title>Icon</title>
    <g id="Symbols" stroke="none" stroke-width="1" fill="none" fill-rule="evenodd">
        <g id="Sidebar-/-Menu-/-Section-/-Icon-/-People" fill="#000000" fill-rule="nonzero">
            <path d="M4.05213465,3.48679335 C4.78456239,3.48679335 5.37349684,2.90378993 5.37349684,2.17136219 C5.37349684,1.43893384 4.78456239,0.85 4.05213465,0.85 C3.31970691,0.85 2.73184199,1.43893384 2.73184199,2.17136219 C2.73184199,2.90378993 3.31970691,3.48679335 4.05213465,3.48679335 Z M4.05213465,9.31253723 C4.2858331,9.31253723 4.37544273,9.46798374 4.51407452,9.89743663 C4.71798413,10.5021467 5.32163069,13.0143276 5.5255403,13.7516958 C5.63070065,14.1324729 5.83234966,14.2942394 6.12196753,14.2942394 C6.51884836,14.2942394 6.76204498,13.9340021 6.65199274,13.5430766 C6.60939383,13.3828294 5.74036397,9.74812776 5.61467593,8.99884884 C5.51378762,8.35883217 5.49005134,7.07770498 5.48898181,6.43110705 C5.48898181,6.34042789 5.59045957,6.30695645 5.64660384,6.38469794 C6.10130615,7.02599076 6.89616165,8.1603006 7.05744196,8.350203 C7.24406285,8.56052371 7.54170828,8.59716728 7.78277799,8.46128831 C8.09932251,8.29253344 8.17479732,7.95010143 8.04165295,7.71389322 C7.99522561,7.62383391 7.92783304,7.53371382 7.86955579,7.44578141 L6.3090138,5.14416429 C5.82344703,4.42716574 5.21706587,4.08854393 4.05213465,4.08854393 C2.88827295,4.08854393 2.28189179,4.42716574 1.7963311,5.14416429 L0.235812203,7.44578141 C0.177535562,7.53371382 0.110120512,7.62383391 0.0637126189,7.71389322 C-0.0694560614,7.95010143 0.00116393268,8.29253344 0.32257299,8.46128831 C0.563629935,8.59716728 0.861300281,8.56052371 1.04301713,8.350203 C1.2043096,8.1603006 2.00403875,7.03085226 2.45873499,6.38469794 C2.51001167,6.31182403 2.61635702,6.34042789 2.61635702,6.43597463 C2.61528749,7.08256648 2.58668363,8.35883217 2.4858014,8.99884884 C2.36390532,9.74812776 1.49593284,13.3828294 1.45332178,13.5430766 C1.34329993,13.9340021 1.58649046,14.2942394 1.98338952,14.2942394 C2.27298917,14.2942394 2.47463817,14.1324729 2.57979853,13.7516958 C2.78370813,13.0143276 3.38736078,10.5021467 3.5912643,9.89743663 C3.7298961,9.46798374 3.81950572,9.31253723 4.05213465,9.31253723 Z M10.9493778,3.48679335 C11.6818237,3.48679335 12.2707339,2.90378993 12.2707339,2.17136219 C12.2707339,1.43893384 11.6818237,0.85 10.9493778,0.85 C10.2169318,0.85 9.6291155,1.43893384 9.6291155,2.17136219 C9.6291155,2.90378993 10.2169318,3.48679335 10.9493778,3.48679335 Z M10.9493778,9.31253723 C11.178233,9.31253723 11.2716346,9.46798374 11.411342,9.89743663 C11.6103597,10.5021467 12.2188981,13.0143276 12.4227773,13.7516958 C12.5279681,14.1324729 12.7295989,14.2942394 13.018129,14.2942394 C13.4161036,14.2942394 13.6593003,13.9340021 13.5482149,13.5430766 C13.5017876,13.3828294 12.6327334,9.74812776 12.5108313,8.99884884 C12.411049,8.35883217 12.3824269,7.07770498 12.3813938,6.43110705 C12.3813938,6.34042789 12.4877392,6.30695645 12.5389672,6.38469794 C12.9985614,7.02599076 13.7934169,8.1603006 13.9546972,8.350203 C14.1402243,8.56052371 14.4341021,8.59716728 14.6789394,8.46128831 C14.9965778,8.29253344 15.0720526,7.95010143 14.933986,7.71389322 C14.8865255,7.62383391 14.8250276,7.53371382 14.7618888,7.44578141 L13.2062691,5.14416429 C12.7147713,4.42716574 12.1143151,4.08854393 10.9493778,4.08854393 C9.78553431,4.08854393 9.17912276,4.42716574 8.6935803,5.14416429 L7.13303831,7.44578141 C7.06989956,7.53371382 7.0073685,7.62383391 6.95990809,7.71389322 C6.82779679,7.95010143 6.8984101,8.29253344 7.21495461,8.46128831 C7.46088582,8.59716728 7.75366975,8.56052371 7.94029064,8.350203 C8.10157095,8.1603006 8.89642645,7.03085226 9.35595988,6.38469794 C9.40621565,6.31182403 9.51359407,6.34042789 9.51359407,6.43597463 C9.512561,7.08256648 9.48393891,8.35883217 9.38306275,8.99884884 C9.2611606,9.74812776 8.39320027,13.3828294 8.35060137,13.5430766 C8.23459379,13.9340021 8.48374574,14.2942394 8.88062657,14.2942394 C9.17025052,14.2942394 9.36598673,14.1324729 9.47221054,13.7516958 C9.67499592,13.0143276 10.2846282,10.5021467 10.4836459,9.89743663 C10.6222595,9.46798374 10.7167549,9.31253723 10.9493778,9.31253723 Z" id="Icon"></path>
        </g>
    </g>
</svg>