<?xml version="1.0" encoding="UTF-8"?>
<svg width="18px" height="18px" viewBox="0 0 18 18" version="1.1" xmlns="http://www.w3.org/2000/svg" xmlns:xlink="http://www.w3.org/1999/xlink">
    <title>Icon</title>
    <g id="Symbols" stroke="none" stroke-width="1" fill="inherit" fill-rule="evenodd" opacity="1">
        <g id="Sidebar-/-Step-/-Icon-/-Name" transform="translate(-1, -1)" fill="inherit" fill-rule="nonzero">
            <path d="M9.99962229,14.8373148 C10.4506064,14.8373148 10.82714,15.2139323 10.82714,15.6649165 L10.82714,18.1776863 C10.82714,18.6219556 10.4506064,19 9.99962229,19 C9.55677987,19 9.18023791,18.6219556 9.18023791,18.1776863 L9.18023791,15.6649165 C9.18023791,15.2139323 9.55677987,14.8373148 9.99962229,14.8373148 Z M8.71580734,8.76974414 C9.11465929,8.35892302 9.79188253,8.35892302 10.2094604,8.76974414 L18.0283655,16.6071737 C18.4540851,17.0261785 18.4391446,17.6735711 18.0350803,18.0925759 C17.6429347,18.5101538 16.9657451,18.5101538 16.5414524,18.0925759 L8.72399942,10.26192 C8.30350896,9.84283123 8.3131783,9.18875734 8.71580734,8.76974414 Z M9.76745737,9.35253181 C9.63500753,9.22007358 9.42810712,9.2267968 9.30384097,9.35253181 C9.17138274,9.48207749 9.17286,9.68368998 9.30384097,9.81462898 L11.7937384,12.3127101 L12.2595791,11.8476249 Z M18.1797847,9.17729178 C18.6307688,9.17729178 19.0088132,9.5523313 19.0088132,9.99660062 C19.0088132,10.4408699 18.6307688,10.8174874 18.1797847,10.8174874 L15.665504,10.8174874 C15.2227455,10.8174874 14.846212,10.4408699 14.846212,9.99660062 C14.846212,9.5523313 15.2227455,9.17729178 15.665504,9.17729178 Z M13.425188,5.42495768 C13.1081646,5.73529151 13.1095915,6.26512443 13.4296366,6.5851276 C13.7399453,6.89546143 14.2779703,6.89398417 14.5949937,6.58070422 L16.3486531,4.81887797 C16.6642496,4.50330658 16.6627388,3.97198801 16.3427776,3.65199323 C16.0338959,3.3416594 15.5025857,3.34609118 15.1907662,3.65641662 L13.425188,5.42495768 Z M10.82714,1.82229861 C10.82714,1.37803433 10.4506064,1 9.99962229,1 C9.55677987,1 9.18023791,1.37803433 9.18023791,1.82229861 L9.18023791,4.33510872 C9.18023791,4.78609286 9.55677987,5.16266 9.99962229,5.16266 C10.4506064,5.16266 10.82714,4.78609286 10.82714,4.33510872 L10.82714,1.82229861 Z M5.41086495,6.58070422 C5.72266765,6.89398417 6.25397783,6.89546143 6.56955761,6.5851276 C6.88283757,6.26512443 6.88431483,5.73529151 6.57545826,5.42495768 L4.82183249,3.66313983 C4.51149866,3.352806 3.98018848,3.3416594 3.66313983,3.65199323 C3.35133714,3.96527319 3.34838261,4.49658337 3.65870805,4.81216315 L5.41086495,6.58070422 Z M1.81934829,9.17729178 C1.37655875,9.17729178 1,9.5523313 1,9.99660062 C1,10.4408699 1.37655875,10.8174874 1.81934829,10.8174874 L4.34707789,10.8174874 C4.79133881,10.8174874 5.16937482,10.4408699 5.16937482,9.99660062 C5.16937482,9.5523313 4.79133881,9.17729178 4.34707789,9.17729178 L1.81934829,9.17729178 Z M3.6534621,15.1685233 C3.34018214,15.4802589 3.33871327,16.0183678 3.64084663,16.3271656 C3.95412658,16.640496 4.49215998,16.6486377 4.80920863,16.3398399 L6.56955761,14.5809765 C6.88283757,14.2691571 6.88431483,13.7378469 6.57545826,13.4289651 C6.26890152,13.10892 5.72414491,13.1074931 5.41381108,13.4230897 L3.6534621,15.1685233 Z" id="Icon"></path>
        </g>
    </g>
</svg>