<?xml version="1.0" encoding="UTF-8"?>
<svg width="15px" height="15px" viewBox="0 0 15 15" version="1.1" xmlns="http://www.w3.org/2000/svg" xmlns:xlink="http://www.w3.org/1999/xlink">
    <title>Icon</title>
    <g id="Symbols" stroke="none" stroke-width="1" fill="none" fill-rule="evenodd">
        <g id="Sidebar-/-Menu-/-Section-/-Icon-/-World" fill="#000000" fill-rule="nonzero">
            <path d="M1.2668821,4.38189099 C3.04051703,6.32395783 5.57747798,7.44836866 8.2636903,7.44244468 C10.4019488,7.43647375 12.4378367,6.7113527 14.0837947,5.38377683 L13.6177373,4.46741539 C12.1325836,5.75012514 10.2509578,6.45086907 8.2636903,6.45682396 C5.70017396,6.46277141 3.31537863,5.32512006 1.72310388,3.36664569 L1.2668821,4.38189099 Z M0.475676647,8.50775895 C4.26137327,11.7613138 9.69293789,12.3652034 14.0659523,10.0555096 L14.0376276,8.93538091 C9.81151526,11.4369545 4.36882146,10.8245154 0.731374804,7.40672905 L0.475676647,8.50775895 Z M4.09627937,13.501985 L5.2612221,13.7638216 C4.7421283,12.5518048 4.46378,11.2587539 4.44591534,9.9320999 C4.27922306,6.36040829 5.84333662,2.97140761 8.61540787,0.74212334 L7.57504944,0.328155992 C4.82736275,2.74271313 3.30085941,6.26283287 3.46160423,9.94399481 C3.47350657,11.1526662 3.69058121,12.3441643 4.09627937,13.501985 Z M8.92118136,14.227277 L9.83954264,13.8185382 C8.46753929,11.9084389 7.72046469,9.63472719 7.72046469,7.26196058 C7.72046469,5.01787458 8.37780707,2.87150525 9.61264726,1.05111589 L8.65272815,0.712213593 C7.40207517,2.66052675 6.73357387,4.92625405 6.73357387,7.26196058 C6.73357387,9.77977073 7.49773253,12.1840291 8.92118136,14.227277 Z M13.1529437,11.5448265 L13.8180922,10.7958933 C11.3682614,9.4090213 9.84236768,6.84886528 9.81255607,4.01075498 C9.80066116,3.00087725 9.98347103,1.99303652 10.3542948,1.05590359 L9.40426333,0.787576759 C9.009055,1.81313347 8.8150193,2.89676706 8.82691421,4.01670987 C8.85672583,7.12445544 10.5020147,9.96748725 13.1529437,11.5448265 Z M4.3889982,7.35924606 C5.04008089,7.35924606 5.57442248,6.81894958 5.57442248,6.16191201 C5.57442248,5.50618287 5.04008089,4.97054028 4.3889982,4.97054028 C3.72732161,4.97054028 3.19036314,5.50618287 3.19036314,6.16191201 C3.19036314,6.81894958 3.72732161,7.35924606 4.3889982,7.35924606 Z M9.96458787,7.95918064 C10.6110018,7.95918064 11.1420351,7.42952267 11.1420351,6.76856721 C11.1420351,6.12082253 10.6110018,5.59112739 9.96458787,5.59112739 C9.30360267,5.59112739 8.77390753,6.12082253 8.77390753,6.76856721 C8.77390753,7.42952267 9.30360267,7.95918064 9.96458787,7.95918064 Z M7.79458484,12.0941482 C8.45423186,12.0941482 8.98258883,11.5644531 8.98258883,10.8988586 C8.98258883,10.2378734 8.45155551,9.70089261 7.79458484,9.70089261 C7.12634375,9.70089261 6.58938528,10.2378734 6.58938528,10.8988586 C6.58938528,11.5644531 7.12634375,12.0941482 7.79458484,12.0941482 Z M7.49936808,14.9987362 C11.6080182,14.9987362 15,11.6019964 15,7.49936808 C15,3.39074774 11.6019964,0 7.49342063,0 C3.39204875,0 0,3.39074774 0,7.49936808 C0,11.6019964 3.39800364,14.9987362 7.49936808,14.9987362 Z M7.49936808,13.8362319 C4.0345671,13.8362319 1.16378298,10.9654701 1.16378298,7.49936808 C1.16378298,4.03325866 4.02861221,1.16247454 7.49342063,1.16247454 C10.9595226,1.16247454 13.8362319,4.03325866 13.8362319,7.49936808 C13.8362319,10.9654701 10.9654701,13.8362319 7.49936808,13.8362319 Z" id="Icon"></path>
        </g>
    </g>
</svg>